<svg viewBox="0 0 14 14" xmlns="http://www.w3.org/2000/svg">
    <path d="M13.2356963,2.696694 C13.3298068,4.78159266 13.2410432,6.61655399 12.9694056,8.20157799 C12.5841245,10.449264 11.3253746,11.629702 9.98714605,12.49444 C9.39090812,12.8784397 8.71136734,13.2510752 7.94852371,13.6123465 C7.40075968,13.8717593 6.7649098,13.8687856 6.21959934,13.6042541 C5.17049853,13.0953486 4.26920623,12.5382772 3.51572246,11.93304 C1.76572466,10.527888 1.29401903,8.673686 1.10985443,6.797686 C0.985351068,5.52709267 0.966676986,4.16009067 1.05383219,2.69668 C1.8680905,2.64853866 2.50398192,2.41897133 2.96150643,2.007978 C3.39296503,1.62033667 3.64706255,1.05126467 3.72379899,0.300761999 C4.87424772,0.100254 6.0145671,-6.21724894e-15 7.14475711,-6.21724894e-15 C8.29492118,-6.21724894e-15 9.43524056,0.100258665 10.5657152,0.300775995 C10.6242236,1.04701332 10.8807882,1.62434999 11.3354091,2.03278599 C11.7703406,2.42270467 12.4037697,2.64400734 13.2356963,2.696694 Z M6.25934551,7.72563251 L6.25934551,10.5 C6.25934551,10.9832492 6.65109635,11.375 7.13434551,11.375 C7.61759467,11.375 8.00934551,10.9832492 8.00934551,10.5 L8.00934551,7.72563251 C9.02888884,7.36527565 9.75934551,6.39294147 9.75934551,5.25 C9.75934551,3.80025253 8.58409298,2.625 7.13434551,2.625 C5.68459804,2.625 4.50934551,3.80025253 4.50934551,5.25 C4.50934551,6.39294147 5.23980218,7.36527565 6.25934551,7.72563251 Z M7.13434551,6.125 C6.65109635,6.125 6.25934551,5.73324916 6.25934551,5.25 C6.25934551,4.76675084 6.65109635,4.375 7.13434551,4.375 C7.61759467,4.375 8.00934551,4.76675084 8.00934551,5.25 C8.00934551,5.73324916 7.61759467,6.125 7.13434551,6.125 Z"></path>
</svg>