<?xml version="1.0" encoding="UTF-8"?>
<svg width="14px" height="14px" viewBox="0 0 14 14" version="1.1" xmlns="http://www.w3.org/2000/svg" xmlns:xlink="http://www.w3.org/1999/xlink">
    <path d="M7,-1.27897692e-12 C10.8659932,-1.27897692e-12 14,3.13400675 14,7 C14,9.67304225 12.4877444,12.0764407 10.1425773,13.2563942 C9.6492205,13.504623 9.0480466,13.3059075 8.79981779,12.8125507 C8.55158897,12.319194 8.75030444,11.7180201 9.24366121,11.4697913 C10.9200603,10.6263235 12,8.90999632 12,7 C12,4.23857625 9.76142375,2 7,2 C4.23857625,2 2,4.23857625 2,7 C2,8.96925616 3.1489372,10.7176849 4.87484591,11.5277922 L6.117,9.374 L4.8579309,9.37497108 C4.30564615,9.37497108 3.8579309,8.92725583 3.8579309,8.37497108 C3.8579309,8.20456805 3.90055256,8.04411985 3.97571679,7.90370556 C3.97860816,7.89790991 3.98185496,7.89164724 3.98517461,7.88540389 L5.86306086,4.35361352 C6.12234285,3.86597503 6.72784153,3.6808555 7.21548002,3.94013749 C7.70311851,4.19941947 7.88823803,4.80491815 7.62895605,5.29255664 L6.522,7.374 L7.8579309,7.37497108 C8.41021565,7.37497108 8.8579309,7.82268633 8.8579309,8.37497108 C8.8579309,8.59748067 8.78525787,8.80301656 8.66235248,8.9691381 L6.20681774,13.2204385 C6.04543583,13.4999602 5.76948447,13.6720952 5.47252637,13.7117736 C5.30595843,13.7515959 5.12647459,13.7487271 4.95042797,13.6948892 C4.88396273,13.6743202 4.88396273,13.6743202 4.81787692,13.652899 C1.96605893,12.7180051 0,10.0482871 0,7 C0,3.13400675 3.13400675,-1.27897692e-12 7,-1.27897692e-12 Z"></path>
</svg>