<svg viewBox="0 0 14 14" xmlns="http://www.w3.org/2000/svg">
    <path d="M9.86909525,7.35212709 C8.33408809,7.76596779 7.20411307,9.17203397 7.20411307,10.8429174 C7.20411307,11.8059578 7.57948821,12.6810265 8.19143551,13.3288484 C4.84077536,13.9654809 -6.21724894e-14,13.2497178 -6.21724894e-14,11.1815591 C-6.21724894e-14,9.24083611 0.954215007,7.52559157 2.41387631,6.48984902 C3.24963297,7.31424359 4.39581602,7.82279286 5.66037455,7.82279286 C6.92493309,7.82279286 8.07111613,7.31424359 8.9068728,6.48984902 C9.25915805,6.73982264 9.58200181,7.02937624 9.86909525,7.35212709 Z M10.912523,14 C9.20735649,14 7.82504594,12.6129887 7.82504594,10.9020236 C7.82504594,9.19105846 9.20735649,7.80404718 10.912523,7.80404718 C12.6176894,7.80404718 14,9.19105846 14,10.9020236 C14,12.6129887 12.6176894,14 10.912523,14 Z M11.3207491,10.326588 L11.3207491,9.79392923 C11.3207491,9.51778686 11.0968915,9.29392923 10.8207491,9.29392923 L10.7915901,9.29392923 C10.5154477,9.29392923 10.2915901,9.51778686 10.2915901,9.79392923 L10.2915901,10.8592468 C10.2915901,11.1353892 10.5154477,11.3592468 10.7915901,11.3592468 L10.8207491,11.3592468 L11.8499081,11.3592468 C12.1260505,11.3592468 12.3499081,11.1353892 12.3499081,10.8592468 L12.3499081,10.826588 C12.3499081,10.5504457 12.1260505,10.326588 11.8499081,10.326588 L11.3207491,10.326588 Z M5.66037455,7.22861163 C3.67101366,7.22861163 2.05831802,5.6104318 2.05831802,3.61430581 C2.05831802,1.61817983 3.67101366,0 5.66037455,0 C7.64973544,0 9.26243109,1.61817983 9.26243109,3.61430581 C9.26243109,5.6104318 7.64973544,7.22861163 5.66037455,7.22861163 Z"></path>
</svg>