<svg viewBox="0 0 14 14" xmlns="http://www.w3.org/2000/svg">
	<path d="M6.65685425,2.41421356 L9.48528137,5.24264069 L3.97487373,10.7530483 C3.88110554,10.8468165 3.75392859,10.8994949 3.62132034,10.8994949 L1.5,10.8994949 C1.22385763,10.8994949 1,10.6756373 1,10.3994949 L1,8.27817459 C1,8.14556635 1.05267842,8.01838939 1.14644661,7.9246212 L6.65685425,2.41421356 Z M7.36396103,1.70710678 L8.77817459,0.292893219 C9.16869888,-0.0976310729 9.80186386,-0.0976310729 10.1923882,0.292893219 L11.6066017,1.70710678 C11.997126,2.09763107 11.997126,2.73079605 11.6066017,3.12132034 L10.1923882,4.53553391 L7.36396103,1.70710678 Z M1,12 L13,12 C13.5522847,12 14,12.4477153 14,13 C14,13.5522847 13.5522847,14 13,14 L1,14 C0.44771525,14 6.76353751e-17,13.5522847 0,13 C-6.76353751e-17,12.4477153 0.44771525,12 1,12 Z"></path>
</svg>