<svg viewBox="0 0 14 14" xmlns="http://www.w3.org/2000/svg">
    <path d="M11.946621,3 C12.4989058,3 12.946621,3.44771525 12.946621,4 L12.946621,13 C12.946621,13.5128358 12.5605808,13.9355072 12.0632422,13.9932723 L11.946621,14 L11.946621,14 L1.96378254,13.9998557 C1.95807355,13.9999518 1.95235292,14 1.94662103,14 C1.39433628,14 0.946621031,13.5522847 0.946621031,13 L0.946621031,4 C0.946621031,3.44771525 1.39433628,3 1.94662103,3 C2.49890578,3 2.94662103,3.44771525 2.94662103,4 L2.946,11.999 L10.946,12 L10.946621,4 C10.946621,3.44771525 11.3943363,3 11.946621,3 Z M8.94662103,9 C9.49890578,9 9.94662103,9.44771525 9.94662103,10 C9.94662103,10.5522847 9.49890578,11 8.94662103,11 C8.39433628,11 7.94662103,10.5522847 7.94662103,10 C7.94662103,9.44771525 8.39433628,9 8.94662103,9 Z M4.94662103,9 C5.49890578,9 5.94662103,9.44771525 5.94662103,10 C5.94662103,10.5522847 5.49890578,11 4.94662103,11 C4.39433628,11 3.94662103,10.5522847 3.94662103,10 C3.94662103,9.44771525 4.39433628,9 4.94662103,9 Z M6.94662103,6 C7.49890578,6 7.94662103,6.44771525 7.94662103,7 C7.94662103,7.55228475 7.49890578,8 6.94662103,8 C6.39433628,8 5.94662103,7.55228475 5.94662103,7 C5.94662103,6.44771525 6.39433628,6 6.94662103,6 Z M8.94662103,3 C9.49890578,3 9.94662103,3.44771525 9.94662103,4 C9.94662103,4.55228475 9.49890578,5 8.94662103,5 C8.39433628,5 7.94662103,4.55228475 7.94662103,4 C7.94662103,3.44771525 8.39433628,3 8.94662103,3 Z M4.94662103,3 C5.49890578,3 5.94662103,3.44771525 5.94662103,4 C5.94662103,4.55228475 5.49890578,5 4.94662103,5 C4.39433628,5 3.94662103,4.55228475 3.94662103,4 C3.94662103,3.44771525 4.39433628,3 4.94662103,3 Z M13,8.8817842e-16 C13.5522847,8.8817842e-16 14,0.44771525 14,1 C14,1.55228475 13.5522847,2 13,2 L1,2 C0.44771525,2 0,1.55228475 0,1 C0,0.44771525 0.44771525,-8.8817842e-16 1,-8.8817842e-16 L13,8.8817842e-16 Z"></path>
</svg>