<?xml version="1.0" encoding="UTF-8"?>
<svg width="14px" height="16px" viewBox="0 0 14 16" version="1.1" xmlns="http://www.w3.org/2000/svg" xmlns:xlink="http://www.w3.org/1999/xlink">
    <path d="M8.94639438,0.717114095 C12.2836321,3.56248145 14,6.09662859 14,8.420984 C14,12.2869773 10.8659932,15.420984 7,15.420984 C3.13400675,15.420984 0,12.2869773 0,8.420984 C0,6.0966314 1.71636372,3.56248765 5.05359325,0.717124641 C6.17504326,-0.239037445 7.82492088,-0.239042134 8.94639438,0.717114095 Z M6.35119672,2.23903963 C3.41856628,4.73943647 2,6.83389397 2,8.420984 C2,11.1824078 4.23857625,13.420984 7,13.420984 C9.76142375,13.420984 12,11.1824078 12,8.420984 C12,6.83389178 10.5814299,4.73943084 7.64880143,2.23903806 C7.27497563,1.92031821 6.72501241,1.92031977 6.35119672,2.23903963 Z M7,5.09731216 C7.27614237,5.09731216 7.5,5.32116978 7.5,5.59731216 L7.5,6.88931216 L8.41421356,5.97599181 C8.58777991,5.80242546 8.85720432,5.78314031 9.05207246,5.91813636 L9.12132034,5.97599181 C9.2948867,6.14955817 9.31417185,6.41898257 9.17917579,6.61385071 L9.12132034,6.68309859 L8.206,7.59731216 L9.5,7.59731216 C9.77614237,7.59731216 10,7.82116978 10,8.09731216 C10,8.37345453 9.77614237,8.59731216 9.5,8.59731216 L8.207,8.59731216 L9.12132034,9.51152572 C9.31658249,9.70678787 9.31658249,10.0233704 9.12132034,10.2186325 C8.9260582,10.4138946 8.60947571,10.4138946 8.41421356,10.2186325 L7.5,9.30431216 L7.5,10.5973122 C7.5,10.8734545 7.27614237,11.0973122 7,11.0973122 C6.72385763,11.0973122 6.5,10.8734545 6.5,10.5973122 L6.5,9.30331216 L5.58578644,10.2186325 C5.41222009,10.3921989 5.14279568,10.411484 4.94792754,10.276488 L4.87867966,10.2186325 C4.7051133,10.0450661 4.68582815,9.77564175 4.82082421,9.58077361 L4.87867966,9.51152572 L5.792,8.59731216 L4.5,8.59731216 C4.22385763,8.59731216 4,8.37345453 4,8.09731216 C4,7.82116978 4.22385763,7.59731216 4.5,7.59731216 L5.793,7.59731216 L4.87867966,6.68309859 C4.68341751,6.48783645 4.68341751,6.17125396 4.87867966,5.97599181 C5.0739418,5.78072967 5.39052429,5.78072967 5.58578644,5.97599181 L6.5,6.89031216 L6.5,5.59731216 C6.5,5.32116978 6.72385763,5.09731216 7,5.09731216 Z"></path>
</svg>