<svg viewBox="0 0 14 14" xmlns="http://www.w3.org/2000/svg">
    <path d="M9.17157288,0 L3,0 C1.8954305,2.02906125e-16 1,0.8954305 1,2 L1,12 C1,13.1045695 1.8954305,14 3,14 L11,14 C12.1045695,14 13,13.1045695 13,12 L13,3.82842712 C13,3.29799415 12.7892863,2.78928632 12.4142136,2.41421356 L10.5857864,0.585786438 C10.2107137,0.210713681 9.70200585,-9.74389576e-17 9.17157288,0 Z M2.71428571,8.75 L2.71428571,8.75 C2.71428571,8.26675084 3.10603656,7.875 3.58928571,7.875 L10.4107143,7.875 C10.8939634,7.875 11.2857143,8.26675084 11.2857143,8.75 L11.2857143,8.75 C11.2857143,9.23324916 10.8939634,9.625 10.4107143,9.625 L3.58928571,9.625 C3.10603656,9.625 2.71428571,9.23324916 2.71428571,8.75 Z M2.71428571,4.375 L2.71428571,4.375 C2.71428571,3.89175084 3.10603656,3.5 3.58928571,3.5 L8.69642857,3.5 C9.17967773,3.5 9.57142857,3.89175084 9.57142857,4.375 L9.57142857,4.375 C9.57142857,4.85824916 9.17967773,5.25 8.69642857,5.25 L3.58928571,5.25 C3.10603656,5.25 2.71428571,4.85824916 2.71428571,4.375 Z"></path>
</svg>