<?xml version="1.0" standalone="no"?><!DOCTYPE svg PUBLIC "-//W3C//DTD SVG 1.1//EN" "http://www.w3.org/Graphics/SVG/1.1/DTD/svg11.dtd"><svg t="1592459981634" class="icon" viewBox="0 0 1024 1024" version="1.1" xmlns="http://www.w3.org/2000/svg" p-id="2736" xmlns:xlink="http://www.w3.org/1999/xlink" width="32" height="32"><defs><style type="text/css"></style></defs><path d="M773.3 437.3v-112S773.3 64 512 64 250.7 325.3 250.7 325.3v112h-112V960h746.7V437.3H773.3z m-224 288.4V848h-74.7V725.7c-22.3-12.9-37.3-36.7-37.3-64.3 0-41.2 33.4-74.7 74.7-74.7s74.7 33.4 74.7 74.7c0 27.5-15.1 51.3-37.4 64.3z m149.4-288.4H325.3V325.8c0.4-31.2 11.3-187.2 186.7-187.2 175.2 0 186.2 155.9 186.7 186.7v112z" p-id="2737"></path></svg>