<svg viewBox="0 0 14 14" xmlns="http://www.w3.org/2000/svg">
    <path d="M8.89949494,5 L11.2542705,5 C11.8065553,5 12.2542705,5.44771525 12.2542705,6 C12.2542705,6.55228475 11.8065553,7 11.2542705,7 L8.25427052,7 L8.25427052,8 L11.2542705,8 C11.8065553,8 12.2542705,8.44771525 12.2542705,9 C12.2542705,9.55228475 11.8065553,10 11.2542705,10 L8.25427052,10 L8.25427052,13 C8.25427052,13.5522847 7.80655527,14 7.25427052,14 C6.70198577,14 6.25427052,13.5522847 6.25427052,13 L6.25427052,10 L3.25427052,10 C2.70198577,10 2.25427052,9.55228475 2.25427052,9 C2.25427052,8.44771525 2.70198577,8 3.25427052,8 L6.25427052,8 L6.25427052,7 L3.25427052,7 C2.70198577,7 2.25427052,6.55228475 2.25427052,6 C2.25427052,5.44771525 2.70198577,5 3.25427052,5 L5.58578644,5 L2.29289322,1.70710678 C1.90236893,1.31658249 1.90236893,0.683417511 2.29289322,0.292893219 C2.68341751,-0.0976310729 3.31658249,-0.0976310729 3.70710678,0.292893219 L7.24264069,3.82842712 L10.7781746,0.292893219 C11.1686989,-0.0976310729 11.8018639,-0.0976310729 12.1923882,0.292893219 C12.5829124,0.683417511 12.5829124,1.31658249 12.1923882,1.70710678 L8.89949494,5 Z"></path>
</svg>