<?xml version="1.0" encoding="UTF-8"?>
<svg viewBox="0 0 14 14" version="1.1" xmlns="http://www.w3.org/2000/svg" xmlns:xlink="http://www.w3.org/1999/xlink">
    <path d="M6,8.00562241 L2,8.00562241 L2,12.0056224 C2,12.5579072 1.55228475,13.0056224 1,13.0056224 C0.44771525,13.0056224 7.10542736e-15,12.5579072 7.10542736e-15,12.0056224 L7.10542736e-15,1.00562241 C7.10542736e-15,0.453337659 0.44771525,0.00562240894 1,0.00562240894 C1.55228475,0.00562240894 2,0.453337659 2,1.00562241 L2,6.00562241 L6,6.00562241 L6,1.00562241 C6,0.574620868 6.27266753,0.207304243 6.65491313,0.0667620083 C7.12016322,-0.112854657 7.65686588,0.0793171787 7.8968847,0.530726918 L12,8.24756446 L12,1.00562241 C12,0.453337659 12.4477153,0.00562240894 13,0.00562240894 C13.5522847,0.00562240894 14,0.453337659 14,1.00562241 L14,12.0056224 C14,12.5579072 13.5522847,13.0056224 13,13.0056224 C12.5987282,13.0056224 12.2526585,12.7692738 12.0934061,12.4281915 C12.0198475,12.3793246 10.6553788,9.88666069 8,4.95019961 L8,12.0056224 C8,12.5579072 7.55228475,13.0056224 7,13.0056224 C6.44771525,13.0056224 6,12.5579072 6,12.0056224 L6,8.00562241 Z"></path>
</svg>