<?xml version="1.0" encoding="UTF-8"?>
<svg width="14px" height="16px" viewBox="0 0 14 16" version="1.1" xmlns="http://www.w3.org/2000/svg" xmlns:xlink="http://www.w3.org/1999/xlink">
    <path d="M8.94639438,0.717114095 C12.2836321,3.56248145 14,6.09662859 14,8.420984 C14,12.2869773 10.8659932,15.420984 7,15.420984 C3.13400675,15.420984 0,12.2869773 0,8.420984 C0,6.0966314 1.71636372,3.56248765 5.05359325,0.717124641 C6.17504326,-0.239037445 7.82492088,-0.239042134 8.94639438,0.717114095 Z M6.35119672,2.23903963 C3.41856628,4.73943647 2,6.83389397 2,8.420984 C2,11.1824078 4.23857625,13.420984 7,13.420984 C9.76142375,13.420984 12,11.1824078 12,8.420984 C12,6.83389178 10.5814299,4.73943084 7.64880143,2.23903806 C7.27497563,1.92031821 6.72501241,1.92031977 6.35119672,2.23903963 Z M5.70199803,5.3138473 C5.86768346,5.5347612 5.82291193,5.84816187 5.60199803,6.0138473 C5.04890971,6.42866354 4.80199803,6.79903106 4.80199803,7.1138473 C4.80199803,7.42866354 5.04890971,7.79903106 5.60199803,8.2138473 C6.38224304,8.79903106 6.80199803,9.42866354 6.80199803,10.1138473 C6.80199803,10.7990311 6.38224304,11.4286635 5.60199803,12.0138473 C5.38108413,12.1795327 5.06768346,12.1347612 4.90199803,11.9138473 C4.73631261,11.6929334 4.78108413,11.3795327 5.00199803,11.2138473 C5.55508635,10.7990311 5.80199803,10.4286635 5.80199803,10.1138473 C5.80199803,9.79903106 5.55508635,9.42866354 5.00199803,9.0138473 C4.22175302,8.42866354 3.80199803,7.79903106 3.80199803,7.1138473 C3.80199803,6.42866354 4.22175302,5.79903106 5.00199803,5.2138473 C5.22291193,5.04816187 5.53631261,5.0929334 5.70199803,5.3138473 Z M9.20199803,5.3138473 C9.36768346,5.5347612 9.32291193,5.84816187 9.10199803,6.0138473 C8.54890971,6.42866354 8.30199803,6.79903106 8.30199803,7.1138473 C8.30199803,7.42866354 8.54890971,7.79903106 9.10199803,8.2138473 C9.88224304,8.79903106 10.301998,9.42866354 10.301998,10.1138473 C10.301998,10.7990311 9.88224304,11.4286635 9.10199803,12.0138473 C8.88108413,12.1795327 8.56768346,12.1347612 8.40199803,11.9138473 C8.23631261,11.6929334 8.28108413,11.3795327 8.50199803,11.2138473 C9.05508635,10.7990311 9.30199803,10.4286635 9.30199803,10.1138473 C9.30199803,9.79903106 9.05508635,9.42866354 8.50199803,9.0138473 C7.72175302,8.42866354 7.30199803,7.79903106 7.30199803,7.1138473 C7.30199803,6.42866354 7.72175302,5.79903106 8.50199803,5.2138473 C8.72291193,5.04816187 9.03631261,5.0929334 9.20199803,5.3138473 Z"></path>
</svg>