<svg viewBox="0 0 14 14" xmlns="http://www.w3.org/2000/svg">
    <path d="M10.8786653,7.30661697 C10.1991911,7.76153086 9.38523762,8.02748053 8.50758342,8.02748053 C7.62992923,8.02748053 6.8230536,7.76852954 6.14357937,7.31361565 C4.3033367,8.2024474 3.03640041,10.0920897 3.03640041,12.2756764 C3.03640041,14.5922379 14,14.5572446 14,12.2756764 C13.9929221,10.0850911 12.7259859,8.18845007 10.8786653,7.30661697 Z M4.82002022,3.70229921 C4.82002022,1.65868604 6.46916077,0 8.50758342,0 C10.5460061,0 12.1951466,1.65868604 12.1951466,3.70229921 C12.1951466,5.74591238 10.5460061,7.40459842 8.50758342,7.40459842 C6.46916079,7.40459842 4.82002023,5.74591238 4.82002022,3.70229921 Z M2.38523762,12.4646406 C2.38523762,12.5486247 2.39939333,12.6326088 2.42062689,12.7095943 C1.03336704,12.4856367 0,12.0517188 0,11.3868446 C0,9.49720233 1.09706774,7.85951231 2.68958544,7.08965804 C3.24165825,7.46058783 3.90697675,7.68454543 4.62184024,7.70554147 C3.25581394,8.83932687 2.3852376,10.5470036 2.38523762,12.4646406 Z M4.21132457,3.70229921 C4.21132457,2.76447673 4.50859454,1.88964232 5.0182002,1.18277611 C4.92618807,1.17577744 4.8412538,1.16877877 4.74924166,1.16877877 C3.07178968,1.16877877 1.71284125,2.53352044 1.71284126,4.22020118 C1.71284127,5.90688191 3.0717897,7.27162359 4.7421638,7.2716236 C5.11729019,7.2716236 5.47826087,7.20163685 5.81092013,7.07566069 C4.83417595,6.28481039 4.21132457,5.06704089 4.21132457,3.70229921 L4.21132457,3.70229921 Z"></path>
</svg>