<svg viewBox="0 0 14 14" xmlns="http://www.w3.org/2000/svg">
   <path d="M3.66776043,6.81042369 C4.52731222,7.56956204 5.68092117,8.0340863 6.94912502,8.0340863 C8.28838374,8.0340863 9.49984679,7.51605114 10.3721656,6.68008016 C12.1006138,7.70523664 13.25,9.52452581 13.25,11.5979797 C13.25,14.8006734 1,14.8006734 1,11.5979797 C1,9.60971612 2.05687862,7.855161 3.66776043,6.81042369 Z M6.95,6.95878785 C4.92035354,6.95878785 3.275,5.40101013 3.275,3.47939392 C3.275,1.55777772 4.92035354,1.08357767e-13 6.95,1.08357767e-13 C8.97964646,1.08357767e-13 10.625,1.55777772 10.625,3.47939392 C10.625,5.40101013 8.97964646,6.95878785 6.95,6.95878785 Z"></path>
</svg>