<?xml version="1.0" encoding="UTF-8"?>
<svg width="14px" height="13px" viewBox="0 0 14 13" version="1.1" xmlns="http://www.w3.org/2000/svg" xmlns:xlink="http://www.w3.org/1999/xlink">
    <path d="M10,11 C10.5522847,11 11,11.4477153 11,12 C11,12.5522847 10.5522847,13 10,13 L4,13 C3.44771525,13 3,12.5522847 3,12 C3,11.4477153 3.44771525,11 4,11 L10,11 Z M7,-2.98427949e-13 C10.8659932,-2.98427949e-13 14,3.13400675 14,7 C14,8.24252561 13.6749537,9.4400183 13.0667458,10.4940912 C12.7907265,10.9724548 12.1791782,11.1364873 11.7008146,10.8604679 C11.222451,10.5844485 11.0584186,9.9729003 11.3344379,9.49453668 C11.7684254,8.74240171 12,7.88926495 12,7 C12,4.23857625 9.76142375,2 7,2 C4.23857625,2 2,4.23857625 2,7 C2,7.89144468 2.23271482,8.74657606 2.66872685,9.50001345 C2.94535193,9.97802706 2.78209428,10.5897826 2.30408068,10.8664077 C1.82606707,11.1430328 1.21431154,10.9797751 0.937686454,10.5017615 C0.326647873,9.44587478 0,8.24557799 0,7 C0,3.13400675 3.13400675,-2.98427949e-13 7,-2.98427949e-13 Z M9.88910741,6.16613562 C10.2796317,6.55665992 10.2796317,7.18982489 9.88910741,7.58034919 L7.76778706,9.70166953 C7.37726277,10.0921938 6.74409779,10.0921938 6.3535735,9.70166953 C5.96304921,9.31114524 5.96304921,8.67798026 6.3535735,8.28745597 L8.47489384,6.16613562 C8.86541814,5.77561133 9.49858312,5.77561133 9.88910741,6.16613562 Z"></path>
</svg>